<svg xmlns="http://www.w3.org/2000/svg" viewBox="0 0 560 220" role="img" aria-label="OpenRAG-Skill banner">
  <defs>
    <linearGradient id="orsLargeCanvas" x1="0" y1="0" x2="1" y2="1">
      <stop offset="0%" stop-color="#F5F1EA"/>
      <stop offset="100%" stop-color="#E8EFF1"/>
    </linearGradient>
    <linearGradient id="orsLargePanel" x1="0" y1="0" x2="0.9" y2="1">
      <stop offset="0%" stop-color="#14525C"/>
      <stop offset="100%" stop-color="#0F343C"/>
    </linearGradient>
  </defs>

  <rect width="560" height="220" rx="28" fill="url(#orsLargeCanvas)"/>

  <rect x="30" y="30" width="164" height="160" rx="30" fill="url(#orsLargePanel)"/>
  <rect x="62" y="78" width="42" height="82" rx="14" fill="#7EAEB7" opacity="0.24"/>
  <path d="M87 54h58l19 19v76a18 18 0 0 1-18 18H87a18 18 0 0 1-18-18V72a18 18 0 0 1 18-18z" fill="#F6F2EA"/>
  <path d="M145 54v19h19" fill="#DDE6E9"/>
  <path d="M145 54l19 19" fill="none" stroke="#D2DDE1" stroke-width="3" stroke-linejoin="round"/>
  <line x1="95" y1="94" x2="133" y2="94" stroke="#8CA2AD" stroke-width="7" stroke-linecap="round"/>
  <line x1="95" y1="112" x2="133" y2="112" stroke="#8CA2AD" stroke-width="7" stroke-linecap="round"/>
  <line x1="95" y1="130" x2="124" y2="130" stroke="#8CA2AD" stroke-width="7" stroke-linecap="round"/>
  <rect x="126" y="122" width="34" height="24" rx="9" fill="#11707B"/>
  <path d="M135 128h-4v12h4" fill="none" stroke="#FFFFFF" stroke-width="3" stroke-linecap="round" stroke-linejoin="round"/>
  <circle cx="143.5" cy="134" r="3" fill="#FFFFFF"/>
  <path d="M150 128h4v12h-4" fill="none" stroke="#FFFFFF" stroke-width="3" stroke-linecap="round" stroke-linejoin="round"/>

  <path d="M228 54v112" stroke="#C6D0D4" stroke-width="2"/>

  <text x="262" y="96" font-family="'Avenir Next', 'Segoe UI', sans-serif" font-size="28" font-weight="600" fill="#223942">Evidence-first prompt RAG</text>
  <text x="262" y="130" font-family="'Avenir Next', 'Segoe UI', sans-serif" font-size="28" font-weight="600" fill="#223942">for context already provided</text>

  <path d="M262 158h164" stroke="#11707B" stroke-width="4" stroke-linecap="round"/>
  <circle cx="284" cy="178" r="5" fill="#11707B"/>
  <circle cx="342" cy="178" r="5" fill="#7A98A3"/>
  <circle cx="400" cy="178" r="5" fill="#7A98A3"/>
  <path d="M289 178h48" stroke="#C1CDD2" stroke-width="2.5" stroke-linecap="round"/>
  <path d="M347 178h48" stroke="#C1CDD2" stroke-width="2.5" stroke-linecap="round"/>
</svg>
