<svg xmlns="http://www.w3.org/2000/svg" viewBox="0 0 240 240" role="img" aria-label="OpenRAG-Skill emblem">
  <defs>
    <linearGradient id="orsLargeCanvas" x1="0" y1="0" x2="1" y2="1">
      <stop offset="0%" stop-color="#F5F1EA"/>
      <stop offset="100%" stop-color="#E8EFF1"/>
    </linearGradient>
    <linearGradient id="orsLargePanel" x1="0" y1="0" x2="0.9" y2="1">
      <stop offset="0%" stop-color="#14525C"/>
      <stop offset="100%" stop-color="#0F343C"/>
    </linearGradient>
  </defs>

  <rect width="240" height="240" rx="32" fill="url(#orsLargeCanvas)"/>
  <rect x="28" y="28" width="184" height="184" rx="36" fill="url(#orsLargePanel)"/>
  <rect x="62" y="84" width="48" height="92" rx="16" fill="#7EAEB7" opacity="0.24"/>
  <path d="M88 54h64l20 20v86a18 18 0 0 1-18 18H88a18 18 0 0 1-18-18V72a18 18 0 0 1 18-18z" fill="#F6F2EA"/>
  <path d="M152 54v20h20" fill="#DDE6E9"/>
  <path d="M152 54l20 20" fill="none" stroke="#D2DDE1" stroke-width="3" stroke-linejoin="round"/>
  <line x1="96" y1="98" x2="138" y2="98" stroke="#8CA2AD" stroke-width="8" stroke-linecap="round"/>
  <line x1="96" y1="118" x2="138" y2="118" stroke="#8CA2AD" stroke-width="8" stroke-linecap="round"/>
  <line x1="96" y1="138" x2="126" y2="138" stroke="#8CA2AD" stroke-width="8" stroke-linecap="round"/>
  <rect x="128" y="128" width="38" height="28" rx="10" fill="#11707B"/>
  <path d="M138 136h-4v12h4" fill="none" stroke="#FFFFFF" stroke-width="3" stroke-linecap="round" stroke-linejoin="round"/>
  <circle cx="147" cy="142" r="3.2" fill="#FFFFFF"/>
  <path d="M154 136h4v12h-4" fill="none" stroke="#FFFFFF" stroke-width="3" stroke-linecap="round" stroke-linejoin="round"/>
  <path d="M88 190h62" stroke="#FF6B4A" stroke-width="6" stroke-linecap="round"/>
</svg>
