<svg xmlns="http://www.w3.org/2000/svg" viewBox="0 0 64 64" role="img" aria-label="OpenRAG-Skill icon">
  <rect x="6" y="6" width="52" height="52" rx="15" fill="#11343D"/>
  <rect x="16" y="21" width="17" height="24" rx="6" fill="#64A9B5" opacity="0.36"/>
  <path d="M25 14h15l7 7v23a8 8 0 0 1-8 8H25a8 8 0 0 1-8-8V22a8 8 0 0 1 8-8z" fill="#F7F4EE"/>
  <path d="M40 14v7h7" fill="#DEE7EA"/>
  <path d="M40 14l7 7" fill="none" stroke="#D6E0E4" stroke-width="1.6" stroke-linejoin="round"/>
  <line x1="26" y1="28" x2="38" y2="28" stroke="#8EA4AE" stroke-width="2.4" stroke-linecap="round"/>
  <line x1="26" y1="34" x2="38" y2="34" stroke="#8EA4AE" stroke-width="2.4" stroke-linecap="round"/>
  <rect x="34" y="34" width="13" height="10" rx="4" fill="#0F7C86"/>
  <path d="M38 37h-1.8v4H38" fill="none" stroke="#FFFFFF" stroke-width="1.6" stroke-linecap="round" stroke-linejoin="round"/>
  <circle cx="40.9" cy="39" r="1.3" fill="#FFFFFF"/>
  <path d="M44 37h1.8v4H44" fill="none" stroke="#FFFFFF" stroke-width="1.6" stroke-linecap="round" stroke-linejoin="round"/>
  <path d="M18 50h27" stroke="#FF6B4A" stroke-width="3" stroke-linecap="round"/>
</svg>
