<svg xmlns="http://www.w3.org/2000/svg" viewBox="0 0 64 64" role="img" aria-label="OpenRAG-Skill icon">
  <defs>
    <linearGradient id="orsSmallBg" x1="0" y1="0" x2="1" y2="1">
      <stop offset="0%" stop-color="#154D57"/>
      <stop offset="100%" stop-color="#0E3139"/>
    </linearGradient>
  </defs>
  <rect x="6" y="6" width="52" height="52" rx="15" fill="url(#orsSmallBg)"/>
  <rect x="17" y="20" width="16" height="25" rx="6" fill="#79AEB9" opacity="0.24"/>
  <path d="M24 14h16l7 7v23a8 8 0 0 1-8 8H24a8 8 0 0 1-8-8V22a8 8 0 0 1 8-8z" fill="#F6F2EA"/>
  <path d="M40 14v7h7" fill="#DCE6E9"/>
  <path d="M40 14l7 7" fill="none" stroke="#D4DFE3" stroke-width="1.6" stroke-linejoin="round"/>
  <line x1="26" y1="28" x2="38" y2="28" stroke="#8CA2AD" stroke-width="2.3" stroke-linecap="round"/>
  <line x1="26" y1="34" x2="38" y2="34" stroke="#8CA2AD" stroke-width="2.3" stroke-linecap="round"/>
  <rect x="34" y="35" width="13" height="10" rx="4" fill="#11707B"/>
  <path d="M38 37.5h-1.7v4H38" fill="none" stroke="#FFFFFF" stroke-width="1.5" stroke-linecap="round" stroke-linejoin="round"/>
  <circle cx="41" cy="39.5" r="1.25" fill="#FFFFFF"/>
  <path d="M44 37.5h1.7v4H44" fill="none" stroke="#FFFFFF" stroke-width="1.5" stroke-linecap="round" stroke-linejoin="round"/>
</svg>
