<svg xmlns="http://www.w3.org/2000/svg" viewBox="0 0 64 64" role="img" aria-label="OpenRAG-Skill icon">
  <defs>
    <linearGradient id="orsSmallBg" x1="0" y1="0" x2="1" y2="1">
      <stop offset="0%" stop-color="#14525C"/>
      <stop offset="100%" stop-color="#0F343C"/>
    </linearGradient>
  </defs>
  <rect x="6" y="6" width="52" height="52" rx="13" fill="url(#orsSmallBg)"/>
  <rect x="18" y="20" width="15" height="24" rx="5" fill="#7EAEB7" opacity="0.2"/>
  <path d="M24 14h16l7 7v23a8 8 0 0 1-8 8H24a8 8 0 0 1-8-8V22a8 8 0 0 1 8-8z" fill="#F6F2EA"/>
  <path d="M40 14v7h7" fill="#DDE6E9"/>
  <path d="M40 14l7 7" fill="none" stroke="#D2DDE1" stroke-width="1.5" stroke-linejoin="round"/>
  <line x1="27" y1="28" x2="38" y2="28" stroke="#8CA2AD" stroke-width="2.2" stroke-linecap="round"/>
  <line x1="27" y1="34" x2="38" y2="34" stroke="#8CA2AD" stroke-width="2.2" stroke-linecap="round"/>
  <rect x="34" y="35" width="13" height="10" rx="3.5" fill="#11707B"/>
  <path d="M38 37.4h-1.7v4.2H38" fill="none" stroke="#FFFFFF" stroke-width="1.45" stroke-linecap="round" stroke-linejoin="round"/>
  <circle cx="41" cy="39.5" r="1.2" fill="#FFFFFF"/>
  <path d="M44 37.4h1.7v4.2H44" fill="none" stroke="#FFFFFF" stroke-width="1.45" stroke-linecap="round" stroke-linejoin="round"/>
</svg>
